<svg xmlns="http://www.w3.org/2000/svg" viewBox="0 0 1393 1393"><defs><style>.cls-1{fill:#6794ff;}.cls-2{fill:#fff;}.cls-3{fill:#35495e;}</style></defs><title>Icona 1</title><g id="Livello_2" data-name="Livello 2"><g id="Livello_1-2" data-name="Livello 1"><rect class="cls-1" width="1393" height="1393"/><circle class="cls-2" cx="703.35" cy="376.86" r="264.84"/><circle class="cls-3" cx="702.04" cy="377.76" r="64.28"/><path class="cls-3" d="M625.19,707.16c110.15,20.93,210.22-1.25,294.64-76,41.65-36.87,82.23-36.37,126.63-11.59,125.18,69.88,164,187,170.49,319.69,2.16,44.08,4.57,88.85-4.44,133.06-17.08,83.87-79.86,143.31-164.48,144.05-235.73,2-471.5.88-707.25.5-17.85,0-35.7-3.8-53.55-5.84-82.9-41.35-117.33-108.57-116-200.71,1.53-105,4.75-208.15,68.06-298.43,22.92-32.7,49.84-60.92,84.28-82.13,63.93-39.36,109.54-36.58,156,9.13C518.65,677.3,570,698.63,625.19,707.16Z"/><path class="cls-2" d="M700.31,714.69c-50.63-.44-100.52-7.71-143-25.91l-96-65.15c92.21,292.52,240.82,559.21,240.82,559.21S846.8,884.63,926.75,625.77l-94.81,62.35C791.82,705.2,745.81,715.1,700.31,714.69Z"/></g></g></svg>